<svg viewBox="0 0 5 10" fill="none" xmlns="http://www.w3.org/2000/svg">
<path d="M4.99991 2.14372e-05C4.85044 -0.00107946 4.70374 0.0402428 4.57682 0.119189C4.4499 0.198136 4.34799 0.311467 4.28291 0.446021L3.17191 2.69802L0.685907 3.05902C0.538041 3.08033 0.399094 3.14261 0.284803 3.23882C0.170513 3.33503 0.0854451 3.46132 0.0392343 3.60339C-0.00697652 3.74545 -0.0124841 3.89762 0.0233356 4.04266C0.0591553 4.18769 0.134871 4.3198 0.241907 4.42402L2.04191 6.17702L1.61691 8.65302C1.59163 8.8001 1.60799 8.95131 1.66414 9.08957C1.7203 9.22784 1.814 9.34764 1.93467 9.43544C2.05535 9.52323 2.19817 9.57553 2.347 9.58641C2.49584 9.5973 2.64475 9.56633 2.77691 9.49702L4.99991 8.32802V2.14372e-05Z" fill="black"/>
</svg>
