<svg  viewBox="0 0 5 10" fill="none" xmlns="http://www.w3.org/2000/svg">
<path d="M9.25064e-05 2.14372e-05C0.149555 -0.00107946 0.296263 0.0402428 0.42318 0.119189C0.550096 0.198136 0.652012 0.311467 0.717093 0.446021L1.82809 2.69802L4.31409 3.05902C4.46196 3.08033 4.60091 3.14261 4.7152 3.23882C4.82949 3.33503 4.91455 3.46132 4.96077 3.60339C5.00698 3.74545 5.01248 3.89762 4.97666 4.04266C4.94084 4.18769 4.86513 4.3198 4.75809 4.42402L2.95809 6.17702L3.38309 8.65302C3.40837 8.8001 3.39201 8.95131 3.33586 9.08957C3.2797 9.22784 3.186 9.34764 3.06533 9.43544C2.94465 9.52323 2.80183 9.57553 2.653 9.58641C2.50416 9.5973 2.35525 9.56633 2.22309 9.49702L9.25064e-05 8.32802V2.14372e-05Z" fill="black"/>
</svg>
