<svg width="24" height="24" viewBox="0 0 24 24" fill="none" xmlns="http://www.w3.org/2000/svg">
<path d="M21.951 9.67004C21.8933 9.49273 21.7871 9.33509 21.6445 9.21493C21.5019 9.09476 21.3285 9.01687 21.144 8.99004L15.445 8.16204L12.897 2.99804C12.8102 2.8375 12.6801 2.70446 12.5216 2.61398C12.3631 2.52349 12.1824 2.47918 12 2.48604V18.766L17.097 21.445C17.2621 21.5319 17.4483 21.5708 17.6344 21.5573C17.8205 21.5439 17.9991 21.4787 18.1501 21.369C18.301 21.2593 18.4183 21.1096 18.4886 20.9368C18.5589 20.764 18.5795 20.5749 18.548 20.391L17.575 14.715L21.698 10.695C21.8316 10.5648 21.9261 10.3998 21.9708 10.2187C22.0155 10.0375 22.0086 9.84749 21.951 9.67004Z" fill="#1F305F"/>
<path d="M11.1028 2.99809L8.5548 8.16209L2.8558 8.99009C2.6711 9.01691 2.49759 9.09488 2.35491 9.21519C2.21222 9.3355 2.10605 9.49333 2.0484 9.67085C1.99076 9.84836 1.98394 10.0385 2.02872 10.2196C2.07351 10.4008 2.1681 10.5659 2.3018 10.6961L6.4248 14.7151L5.4518 20.3911C5.42043 20.5749 5.44104 20.7637 5.51133 20.9364C5.58161 21.1091 5.69877 21.2587 5.84956 21.3683C6.00036 21.4779 6.1788 21.5432 6.36473 21.5567C6.55066 21.5703 6.73668 21.5316 6.9018 21.4451L11.9998 18.7651V2.50309C11.8201 2.49996 11.6426 2.54402 11.4852 2.63088C11.3278 2.71774 11.196 2.84435 11.1028 2.99809Z" fill="#00FFD1"/>
</svg>
